# AST/ASF file generated using VICON BodyLanguage
# -----------------------------------------------
:version 1.10
:name VICON
:units
  mass 1.0
  length 0.45
  angle deg
:documentation
   .ast/.asf automatically generated from VICON data using
   VICON BodyBuilder and BodyLanguage model FoxedUp or BRILLIANT.MOD
:root
   order TX TY TZ RX RY RZ
   axis XYZ
   position 0 0 0  
   orientation 0 0 0 
:bonedata
  begin
     id 1 
     name lhipjoint
     direction 0.682418 -0.694059 0.22932 
     length 2.25561 
     axis 0 0 0  XYZ
  end
  begin
     id 2 
     name lfemur
     direction 0.34202 -0.939693 0  
     length 6.96448  
     axis 0 0 20  XYZ
    dof rx ry rz
    limits (-160.0 20.0)
           (-70.0 70.0)
           (-60.0 70.0)
  end
  begin
     id 3 
     name ltibia
     direction 0.34202 -0.939693 0   
     length 6.88553   
     axis 0 0 20   XYZ
    dof rx
    limits (-10.0 170.0)
  end
  begin
     id 4 
     name lfoot
     direction 0.0723587 -0.198804 0.977364   
     length 1.88518   
     axis -90 7.62852e-016 20   XYZ
    dof rx rz
    limits (-45.0 90.0)
           (-70.0 20.0)
  end
  begin
     id 5 
     name ltoes
     direction 1.53558e-011 -4.21962e-011 1   
     length 0.952124   
     axis -90 7.62852e-016 20   XYZ
    dof rx
    limits (-90.0 20.0)
  end
  begin
     id 6 
     name rhipjoint
     direction -0.657603 -0.71533 0.236348   
     length 2.18854  
     axis 0 0 0  XYZ 
  end
  begin
     id 7 
     name rfemur
     direction -0.34202 -0.939693 0   
     length 6.86686   
     axis 0 0 -20   XYZ
    dof rx ry rz
    limits (-160.0 20.0)
           (-70.0 70.0)
           (-70.0 60.0)
  end
  begin
     id 8 
     name rtibia
     direction -0.34202 -0.939693 0   
     length 6.59503   
     axis 0 0 -20   XYZ
    dof rx
    limits (-10.0 170.0)
 end
 begin
     id 9 
     name rfoot
     direction -0.101977 -0.280179 0.954516   
     length 1.93723  
     axis -90 -7.62852e-016 -20   XYZ
    dof rx rz
    limits (-45.0 90.0)
           (-20.0 70.0)
  end
  begin
     id 10 
     name rtoes
     direction -1.53564e-011 -4.21897e-011 1   
     length 0.970315   
     axis -90 -7.62852e-016 -20   XYZ
    dof rx
    limits (-90.0 20.0)
  end
  begin
     id 11 
     name lowerback
     direction -0.0339559 0.999421 -0.00235966   
     length 1.88543   
     axis 0 0 0   XYZ
    dof rx ry rz
    limits (-20.0 45.0)
           (-30.0 30.0)
           (-30.0 30.0)
  end
  begin
     id 12 
     name upperback
     direction 0.00401003 0.999739 0.0224689   
     length 1.8856   
     axis 0 0 0   XYZ
    dof rx ry rz
    limits (-20.0 45.0)
           (-30.0 30.0)
           (-30.0 30.0)
  end
  begin
     id 13 
     name thorax
     direction 0.0198619 0.999546 0.0226536   
     length 1.88352   
     axis 0 0 0   XYZ
    dof rx ry rz
    limits (-20.0 45.0)
           (-30.0 30.0)
           (-30.0 30.0)
  end
  begin
     id 14 
     name lowerneck
     direction -0.0461848 0.998632 0.0245198   
     length 1.34895   
     axis 0 0 0   XYZ
    dof rx ry rz
    limits (-20.0 45.0)
           (-30.0 30.0)
           (-30.0 30.0)
  end
  begin
     id 15 
     name upperneck
     direction -0.0180627 0.994724 -0.100984   
     length 1.35214   
     axis 0 0 0   XYZ
    dof rx ry rz
    limits (-20.0 45.0)
           (-30.0 30.0)
           (-30.0 30.0)
  end
  begin
     id 16
     name head
     direction -0.00374772 0.999293 -0.037403  
     length 1.3568  
     axis 0 0 0   XYZ
    dof rx ry rz
    limits (-20.0 45.0)
           (-30.0 30.0)
           (-30.0 30.0)
  end
  begin
     id 17 
     name lclavicle
     direction 0.971773 0.191119 0.138311  
     length 2.84954  
     axis 0 0 0   XYZ
    dof ry rz
    limits (-20.0 10.0)
           (0.0 20.0)
  end
  begin
     id 18 
     name lhumerus
     direction 1 -4.4897e-011 -2.43761e-027   
     length 4.40919   
     axis 180 -30 -90   XYZ
    dof rx ry rz
    limits (-60.0 90.0)
           (-90.0 90.0)
           (-90.0 90.0)
  end
  begin
     id 19
     name lradius
     direction 1 -4.4896e-011 -9.1621e-027   
     length 3.03857   
     axis 180 -30 -90   XYZ
    dof rx
    limits (-10.0 170.0)
  end
  begin
     id 20
     name lwrist
     direction 1 -4.4896e-011 -1.41363e-026   
     length 1.51928   
     axis 1.07133e-014 90 90   XYZ
    dof ry
    limits (-180.0 0.0)
 end
  begin
     id 21 
     name lhand
     direction 1 -4.48978e-011 -2.82725e-026   
     length 0.523208   
     axis 1.80403e-014 90 90   XYZ
    dof rx rz
    limits (-90.0 90.0)
           (-45.0 45.0)
  end
  begin
     id 22 
     name lfingers
     direction 1 -4.48977e-011 -5.6545e-026   
     length 0.421824   
     axis 3.60806e-014 90 90   XYZ
    dof rx
    limits (0.0 90.0)
  end
  begin
     id 23
     name lthumb
     direction 0.707107 -6.34962e-011 0.707107   
     length 0.605657   
     axis -90 45 2.85299e-015   XYZ
    dof rx rz
    limits (-45.0 45.0)
           (-45.0 45.0)
  end
  begin
     id 24 
     name rclavicle
     direction -0.957247 0.24311 0.156766   
     length 3.12406  
     axis 0 0 0   XYZ 
    dof ry rz
    limits (-10.0 20.0)
           (-20.0 0.0)
  end
  begin
     id 25 
     name rhumerus
     direction -1 -4.48964e-011 -1.70632e-027  
     length 4.61969   
     axis 180 30 90   XYZ
    dof rx ry rz
    limits (-90.0 60.0)
           (-90.0 90.0)
           (-90.0 90.0)
  end
  begin
     id 26 
     name rradius
     direction -1 -4.48966e-011 -6.60395e-027   
     length 3.09382   
     axis 180 30 90   XYZ
    dof rx
    limits (-10.0 170.0)
  end
  begin
     id 27 
     name rwrist
     direction -1 -4.48963e-011 -1.41363e-026   
     length 1.54691   
     axis 1.07133e-014 -90 -90   XYZ
    dof ry
    limits (-180.0 0.0)
  end
  begin
     id 28
     name rhand
     direction -1 -4.49013e-011 -2.82725e-026   
     length 0.500896   
     axis 1.80403e-014 -90 -90   XYZ
    dof rx rz
    limits (-90.0 90.0)
           (-45.0 45.0)
  end
  begin
     id 29
     name rfingers
     direction -1 -4.48902e-011 -5.6545e-026   
     length 0.403835   
     axis 3.60806e-014 -90 -90   XYZ
    dof rx
    limits (0.0 90.0)
  end
  begin
     id 30
     name rthumb
     direction -0.707107 -6.34953e-011 0.707107   
     length 0.579829   
     axis -90 -45 -2.85299e-015   XYZ
    dof rx rz
    limits (-45.0 45.0)
           (-45.0 45.0)
  end
:hierarchy
  begin
    root lhipjoint rhipjoint lowerback
    lhipjoint lfemur
    lfemur ltibia
    ltibia lfoot
    lfoot ltoes
    rhipjoint rfemur
    rfemur rtibia
    rtibia rfoot
    rfoot rtoes
    lowerback upperback
    upperback thorax
    thorax lowerneck lclavicle rclavicle
    lowerneck upperneck
    upperneck head
    lclavicle lhumerus
    lhumerus lradius
    lradius lwrist
    lwrist lhand lthumb
    lhand lfingers
    rclavicle rhumerus
    rhumerus rradius
    rradius rwrist
    rwrist rhand rthumb
    rhand rfingers
  end

#!OML:ASF E:\madness\Project 1\Capture day 1\Session 1\Female1.ASF
:FULLY-SPECIFIED
:DEGREES
437
root 32.5166 16.0121 -3.90263 -366.037 -74.7476 371.515
lowerback -2.83936 -1.82649 -4.36725
upperback -1.12565 -2.33787 1.39935
thorax 0.666199 -1.16824 3.80732
lowerneck 1.71557 4.74509 1.63221
upperneck 2.48429 6.44134 -9.22765
head 0.879498 3.14848 -3.21148
rclavicle 2.76062e-014 -7.95139e-015
rhumerus -60.0998 7.39855 -74.1025
rradius 54.919
rwrist 1.21545
rhand -5.2346 -48.6105
rfingers 7.12502
rthumb 20.568 -77.5409
lclavicle 2.76062e-014 -7.95139e-015
lhumerus -57.2143 -44.1381 64.1984
lradius 85.7706
lwrist -15.1199
lhand 4.75217 -14.0926
lfingers 7.12502
lthumb 30.1336 13.4704
rfemur -12.7218 6.95577 19.2253
rtibia 28.3559
rfoot -31.7108 -17.4211
rtoes 44.9141
lfemur -25.6174 -12.1722 -13.2902
ltibia 34.9986
lfoot -14.7187 2.81767
ltoes 8.75096
438
root 32.5339 16.0069 -3.92456 -365.949 -74.8462 371.398
lowerback -2.87377 -1.80964 -4.43218
upperback -1.2662 -2.31543 1.39006
thorax 0.540552 -1.15179 3.8369
lowerneck 1.61441 4.60331 0.626355
upperneck 2.50787 6.22437 -8.42975
head 0.824364 3.03308 -2.7571
rclavicle 2.63141e-014 -5.56597e-015
rhumerus -60.1964 7.44507 -74.2063
rradius 54.5783
rwrist 1.21545
rhand -5.00105 -48.65
rfingers 7.12502
rthumb 20.7924 -77.556
lclavicle 2.63141e-014 -5.56597e-015
lhumerus -56.6632 -43.9859 63.6132
lradius 85.6037
lwrist -15.6121
lhand 3.7667 -13.6913
lfingers 7.12502
lthumb 29.1929 14.0391
rfemur -12.8639 6.75077 19.3234
rtibia 28.4597
rfoot -31.4619 -17.3939
rtoes 44.7084
lfemur -25.5698 -11.7536 -13.3242
ltibia 34.9912
lfoot -14.7815 2.61339
ltoes 9.2751
439
root 32.5466 16.0043 -3.94463 -366.08 -75.0475 371.452
lowerback -2.95686 -1.76508 -4.57263
upperback -1.32096 -2.25027 1.41297
thorax 0.530161 -1.11788 3.9409
lowerneck 1.84258 4.57035 0.700589
upperneck 2.70344 6.18725 -8.28297
head 0.842077 3.016 -2.7257
rclavicle 1.09953e-014 1.59028e-015
rhumerus -60.132 7.51379 -74.2199
rradius 54.1505
rwrist 1.28097
rhand -5.27337 -47.5167
rfingers 7.12502
rthumb 20.5307 -76.4512
lclavicle 1.09953e-014 1.59028e-015
lhumerus -56.119 -43.7494 62.9887
lradius 85.6301
lwrist -16.0379
lhand 3.43367 -13.8058
lfingers 7.12502
lthumb 28.8749 13.9794
rfemur -12.9229 6.49518 19.3937
rtibia 28.5114
rfoot -31.0979 -17.3756
rtoes 44.218
lfemur -25.3474 -11.3671 -13.3951
ltibia 34.9648
lfoot -14.9292 2.66833
ltoes 9.63703
440
root 32.5514 16.0054 -3.96256 -366.144 -74.9999 371.506
lowerback -3.08771 -1.84862 -4.74216
upperback -1.39585 -2.35338 1.44512
thorax 0.544529 -1.16839 4.0626
lowerneck 1.76152 4.57569 0.255738
upperneck 2.92595 6.195 -7.84651
head 0.89452 3.01019 -2.49644
rclavicle 6.52262e-015 7.95139e-015
rhumerus -59.9597 8.0986 -74.484
rradius 53.5664
rwrist 0.946035
rhand -4.8663 -49.6349
rfingers 7.12502
rthumb 20.9219 -78.5266
lclavicle 6.52262e-015 7.95139e-015
lhumerus -55.9586 -43.4455 62.4275
lradius 86.0644
lwrist -16.3537
lhand 2.66967 -14.0829
lfingers 7.12502
lthumb 28.1449 13.8248
rfemur -12.9342 6.20516 19.4372
rtibia 28.5196
rfoot -31.0283 -17.3827
rtoes 43.9415
lfemur -25.1503 -11.2141 -13.4781
ltibia 34.9428
lfoot -15.213 2.86625
ltoes 9.08616
441
root 32.5537 16.0079 -3.98166 -366.222 -75.1194 371.355
lowerback -2.94148 -1.84916 -4.85942
upperback -1.49526 -2.36056 1.48073
thorax 0.366882 -1.16522 4.17216
lowerneck 1.8742 4.56013 -0.0502325
upperneck 3.18447 6.17379 -7.46877
head 0.930822 2.99367 -2.31823
rclavicle -1.31074e-014 -9.14409e-015
rhumerus -60.0326 8.29162 -74.5067
rradius 53.0841
rwrist 1.08714
rhand -4.19114 -49.5018
rfingers 7.12502
rthumb 21.5704 -78.3206
lclavicle -1.31074e-014 -9.14409e-015
lhumerus -55.9781 -43.2575 62.0114
lradius 86.5036
lwrist -16.6022
lhand 1.16535 -14.3919
lfingers 7.12502
lthumb 26.7061 13.7437
rfemur -12.698 5.98285 19.5783
rtibia 28.4761
rfoot -30.9698 -17.2818
rtoes 43.6435
lfemur -24.6796 -10.8561 -13.5722
ltibia 34.944
lfoot -15.2936 3.01401
ltoes 8.93512
442
root 32.5667 16.0088 -3.99464 -365.622 -75.4144 370.839
lowerback -3.08025 -1.73325 -4.71998
upperback -1.60043 -2.20653 1.49764
thorax 0.315081 -1.08581 4.11507
lowerneck 1.75445 4.47505 0.0248991
upperneck 3.53609 6.08322 -7.33527
head 1.05625 2.93836 -2.28255
rclavicle -3.56694e-014 -8.74653e-015
rhumerus -59.9953 7.71929 -74.105
rradius 52.683
rwrist 1.6668
rhand -3.73692 -49.7263
rfingers 7.12502
rthumb 22.0066 -78.4943
lclavicle -3.56694e-014 -8.74653e-015
lhumerus -55.4473 -43.1386 61.3796
lradius 86.6709
lwrist -16.7647
lhand 0.0365049 -14.7397
lfingers 7.12502
lthumb 25.6253 13.556
rfemur -12.916 5.65311 19.7593
rtibia 28.4018
rfoot -30.6098 -17.1333
rtoes 43.065
lfemur -24.6478 -10.3823 -13.5052
ltibia 34.9734
lfoot -15.1846 3.32723
ltoes 9.50164
